<svg xmlns="http://www.w3.org/2000/svg" viewBox="0 0 100 100" fill="none">
  <defs>
    <linearGradient id="bBody" x1="24" y1="6" x2="82" y2="94" gradientUnits="userSpaceOnUse">
      <stop stop-color="#1A2440"/>
      <stop offset="0.32" stop-color="#4F8EF7"/>
      <stop offset="0.58" stop-color="#2563EB"/>
      <stop offset="1" stop-color="#131C31"/>
    </linearGradient>
    <linearGradient id="bGloss" x1="30" y1="8" x2="58" y2="55" gradientUnits="userSpaceOnUse">
      <stop stop-color="#FFFFFF" stop-opacity="0.5"/>
      <stop offset="1" stop-color="#FFFFFF" stop-opacity="0"/>
    </linearGradient>
    <linearGradient id="arrow" x1="30" y1="86" x2="92" y2="10" gradientUnits="userSpaceOnUse">
      <stop stop-color="#FFFFFF"/>
      <stop offset="0.4" stop-color="#BAE6FD"/>
      <stop offset="1" stop-color="#22D3EE"/>
    </linearGradient>
    <linearGradient id="circuit" x1="0" y1="0" x2="28" y2="0" gradientUnits="userSpaceOnUse">
      <stop stop-color="#22D3EE"/>
      <stop offset="1" stop-color="#4F8EF7"/>
    </linearGradient>
    <filter id="shadow" x="-15%" y="-5%" width="130%" height="125%">
      <feDropShadow dx="0" dy="2.5" stdDeviation="2.5" flood-color="#020617" flood-opacity="0.5"/>
    </filter>
    <linearGradient id="nex" x1="0" y1="0" x2="1" y2="0">
      <stop stop-color="#22D3EE"/>
      <stop offset="1" stop-color="#4F8EF7"/>
    </linearGradient>
  </defs>
  <ellipse cx="54" cy="97" rx="32" ry="3.5" fill="#000" fill-opacity="0.28"/>
  <g stroke="url(#circuit)" stroke-width="2.4" stroke-linecap="round">
    <path d="M2 32 H24"/><path d="M2 44 H32"/><path d="M2 56 H20"/><path d="M2 68 H28"/>
  </g>
  <g fill="#22D3EE">
    <circle cx="2" cy="32" r="2.4"/><circle cx="2" cy="44" r="2.4"/><circle cx="2" cy="56" r="2.4"/><circle cx="2" cy="68" r="2.4"/>
    <circle cx="24" cy="32" r="1.6" fill-opacity="0.9"/><circle cx="32" cy="44" r="1.6" fill-opacity="0.9"/>
    <circle cx="20" cy="56" r="1.6" fill-opacity="0.9"/><circle cx="28" cy="68" r="1.6" fill-opacity="0.9"/>
  </g>
  <g filter="url(#shadow)">
    <path fill-rule="evenodd" clip-rule="evenodd" d="M27 6h27c15.5 0 25 9.5 25 22.5 0 9.5-5 16.5-14 19.5 10.5 2.5 17.5 10.5 17.5 23.5 0 14.5-11 25.5-26.5 25.5H27V6zm8 8v27h15.5c8.5 0 13.5-4.5 13.5-12.5S59 16 50.5 16H35zm0 35v27h16.5c9.5 0 15.5-5 15.5-13.5S61 42 51.5 42H35z" fill="url(#bBody)"/>
    <path fill-rule="evenodd" clip-rule="evenodd" d="M27 6h27c15.5 0 25 9.5 25 22.5 0 9.5-5 16.5-14 19.5 10.5 2.5 17.5 10.5 17.5 23.5 0 14.5-11 25.5-26.5 25.5H27V6zm8 8v27h15.5c8.5 0 13.5-4.5 13.5-12.5S59 16 50.5 16H35zm0 35v27h16.5c9.5 0 15.5-5 15.5-13.5S61 42 51.5 42H35z" fill="url(#bGloss)"/>
  </g>
  <path d="M34 84 C48 64 54 50 60 38 C66 28 74 18 86 12" stroke="url(#arrow)" stroke-width="7.5" stroke-linecap="round" fill="none"/>
  <path d="M86 12 L96 7 L92 19 Z" fill="#22D3EE" stroke="#E0F2FE" stroke-width="0.8" stroke-linejoin="round"/>
</svg>
